HIERARCHY
ROOT Hips
{
	OFFSET -0.001795 -0.223333 0.028219
	CHANNELS 6 Xposition Yposition Zposition Zrotation Yrotation Xrotation 
	JOINT LeftUpLeg
	{
		OFFSET 0.069520 -0.091406 -0.006815
		CHANNELS 3 Zrotation Yrotation Xrotation
		JOINT LeftLeg
		{
			OFFSET 0.034277 -0.375199 -0.004496
			CHANNELS 3 Zrotation Yrotation Xrotation
			JOINT LeftFoot
			{
				OFFSET -0.013596 -0.397961 -0.043693
				CHANNELS 3 Zrotation Yrotation Xrotation
				JOINT LeftToe
				{
					OFFSET 0.026358 -0.055791 0.119288
					CHANNELS 3 Zrotation Yrotation Xrotation
					End Site
					{
						OFFSET 0.000000 0.000000 0.000000
					}
				}
			}
		}
	}
	JOINT RightUpLeg
	{
		OFFSET -0.067670 -0.090522 -0.004320
		CHANNELS 3 Zrotation Yrotation Xrotation
		JOINT RightLeg
		{
			OFFSET -0.038290 -0.382569 -0.008850
			CHANNELS 3 Zrotation Yrotation Xrotation
			JOINT RightFoot
			{
				OFFSET 0.015774 -0.398415 -0.042312
				CHANNELS 3 Zrotation Yrotation Xrotation
				JOINT RightToe
				{
					OFFSET -0.025372 -0.048144 0.123348
					CHANNELS 3 Zrotation Yrotation Xrotation
					End Site
					{
						OFFSET 0.000000 0.000000 0.000000
					}
				}
			}
		}
	}
	JOINT Spine
	{
		OFFSET -0.002533 0.108963 -0.026696
		CHANNELS 3 Zrotation Yrotation Xrotation
		JOINT Spine1
		{
			OFFSET 0.005487 0.135180 0.001092
			CHANNELS 3 Zrotation Yrotation Xrotation
			JOINT Spine2
			{
				OFFSET 0.001457 0.052922 0.025425
				CHANNELS 3 Zrotation Yrotation Xrotation
				JOINT Neck
				{
					OFFSET -0.002778 0.213870 -0.042857
					CHANNELS 3 Zrotation Yrotation Xrotation
					JOINT Head
					{
						OFFSET 0.005152 0.064970 0.051349
						CHANNELS 3 Zrotation Yrotation Xrotation
						End Site
						{
							OFFSET 0.000000 0.000000 0.000000
						}
					}
				}
				JOINT LeftShoulder
				{
					OFFSET 0.078845 0.121749 -0.034090
					CHANNELS 3 Zrotation Yrotation Xrotation
					JOINT LeftArm
					{
						OFFSET 0.090977 0.030469 -0.008868
						CHANNELS 3 Zrotation Yrotation Xrotation
						JOINT LeftForeArm
						{
							OFFSET 0.259612 -0.012772 -0.027456
							CHANNELS 3 Zrotation Yrotation Xrotation
							JOINT LeftHand
							{
								OFFSET 0.249234 0.008986 -0.001171
								CHANNELS 3 Zrotation Yrotation Xrotation
								End Site
								{
									OFFSET 0.000000 0.000000 0.000000
								}
							}
						}
					}
				}
				JOINT RightShoulder
				{
					OFFSET -0.081759 0.118833 -0.038615
					CHANNELS 3 Zrotation Yrotation Xrotation
					JOINT RightArm
					{
						OFFSET -0.096012 0.032551 -0.009143
						CHANNELS 3 Zrotation Yrotation Xrotation
						JOINT RightForeArm
						{
							OFFSET -0.253742 -0.013329 -0.021401
							CHANNELS 3 Zrotation Yrotation Xrotation
							JOINT RightHand
							{
								OFFSET -0.255298 0.007772 -0.005559
								CHANNELS 3 Zrotation Yrotation Xrotation
								End Site
								{
									OFFSET 0.000000 0.000000 0.000000
								}
							}
						}
					}
				}
			}
		}
	}
}
MOTION
Frames: 6
Frame Time: 0.050000
0.000000 0.955452 0.000000 -2.533318 -3.380232 2.001504 9.736238 -0.029118 4.655847 -2.948178 0.404990 -6.919054 25.832211 32.819003 45.619842 0.000000 0.000000 0.000000 -3.884486 -0.072086 3.272698 2.670270 -0.323234 -3.940056 -9.677149 -21.637391 53.137302 0.000000 0.000000 0.000000 -3.608461 0.048752 1.061648 5.639193 -1.118258 -20.094393 -0.052072 0.956313 27.011457 -1.143246 1.916017 -21.817717 0.000000 0.000000 0.000000 -21.185729 1.071703 -1.474905 -51.709802 -12.386922 -3.372984 -12.484609 -27.076871 4.539815 0.000000 0.000000 0.000000 13.328391 6.094918 2.093442 60.445671 5.732296 -5.601954 6.354744 25.592245 2.464873 0.000000 0.000000 0.000000 
0.000138 0.954869 0.001387 -2.803717 -4.310913 2.557886 9.743138 -0.010445 4.798345 -2.650223 0.404174 -7.520397 26.215836 33.027890 45.956877 0.000000 0.000000 0.000000 -3.492155 -0.032665 2.481887 2.423204 -0.296808 -3.640626 -9.882785 -21.916689 52.530799 0.000000 0.000000 0.000000 -3.444610 0.071477 -0.402605 5.285419 -1.115628 -19.064444 0.866117 1.396896 27.333256 -2.002874 2.469518 -22.618420 0.000000 0.000000 0.000000 -21.801233 1.735553 -1.868268 -51.570584 -12.482598 -3.374619 -13.439361 -27.454513 4.862074 0.000000 0.000000 0.000000 12.291437 6.338661 2.198489 61.656862 6.150707 -5.522029 4.781607 26.865718 2.271978 0.000000 0.000000 0.000000 
0.000334 0.954358 0.002527 -2.415836 -3.834253 2.685822 9.312146 -0.021655 3.979138 -2.881565 0.395627 -6.203156 26.159092 33.316029 44.433461 0.000000 0.000000 0.000000 -3.624647 -0.030319 2.525417 1.876014 -0.272982 -4.056587 -10.362871 -22.193579 54.017050 0.000000 0.000000 0.000000 -3.468589 0.077895 -0.795468 5.931961 -1.247288 -19.541350 -0.035319 1.466619 27.807753 -0.492227 1.535426 -21.626135 0.000000 0.000000 0.000000 -22.260986 2.226416 -2.282657 -51.688228 -12.308482 -3.503892 -13.054214 -26.557831 4.591364 0.000000 0.000000 0.000000 12.911593 6.716171 2.444817 61.051365 5.981632 -5.590025 3.990996 26.292261 2.047965 0.000000 0.000000 0.000000 
0.000489 0.954026 0.003508 -2.371557 -4.441354 2.927354 9.359754 -0.006718 4.236943 -3.479333 0.439919 -6.333241 26.166042 33.586112 43.193491 0.000000 0.000000 0.000000 -3.916219 0.001529 2.436079 2.133455 -0.278977 -3.727010 -8.927926 -21.197832 50.669822 0.000000 0.000000 0.000000 -3.777588 0.096718 -1.642620 6.230276 -1.322808 -19.708605 0.076060 0.955858 28.380200 -1.048360 1.732099 -21.327224 0.000000 0.000000 0.000000 -22.773963 3.332676 -2.716323 -51.823770 -12.179869 -3.662214 -13.414230 -25.643467 4.561130 0.000000 0.000000 0.000000 12.200965 7.335209 2.591892 61.136973 6.505666 -5.432013 4.126078 25.544402 1.965426 0.000000 0.000000 0.000000 
0.000630 0.954301 0.004316 -1.979207 -4.062382 2.729687 9.008387 -0.001847 4.088774 -3.773966 0.453274 -5.767086 26.171792 33.731933 42.609694 0.000000 0.000000 0.000000 -4.283966 0.003097 2.711030 1.700467 -0.256341 -3.838140 -8.004039 -20.365650 51.724843 0.000000 0.000000 0.000000 -3.589832 0.092182 -1.698852 6.366775 -1.381519 -19.398652 -0.416005 0.839338 27.934058 -0.859250 1.620974 -21.084553 0.000000 0.000000 0.000000 -22.943519 3.248702 -2.742767 -52.308028 -11.986423 -3.690486 -12.612947 -24.710809 4.178416 0.000000 0.000000 0.000000 12.425684 7.113885 2.497143 61.115717 6.643935 -5.303311 4.234730 24.954184 1.932092 0.000000 0.000000 0.000000 
0.000795 0.954709 0.004832 -1.740869 -3.956566 2.718263 8.993775 -0.002500 4.152929 -4.115647 0.475799 -5.752976 25.555333 33.323635 42.169539 0.000000 0.000000 0.000000 -4.519095 0.006922 2.892408 1.451172 -0.240856 -3.823108 -6.889765 -19.418662 50.811416 0.000000 0.000000 0.000000 -3.839838 0.096129 -1.972054 6.593568 -1.396360 -19.906805 -0.449895 0.634400 28.615752 -0.822884 1.565490 -21.044927 0.000000 0.000000 0.000000 -23.275214 3.674014 -2.962907 -52.891557 -12.346886 -3.629683 -11.468696 -23.461876 3.724215 0.000000 0.000000 0.000000 12.062431 7.107530 2.485522 61.158330 7.142990 -5.133837 4.052688 23.864497 1.794631 0.000000 0.000000 0.000000 
